<svg xmlns="http://www.w3.org/2000/svg" width="512" height="512" viewBox="0 0 108 108" role="img" aria-labelledby="title desc">
<title id="title">StreberAlarm</title><desc id="desc">Ein erhobener Zeigefinger mit eingeklappten übrigen Fingern, umkreist von einem roten und einem blauen Bewegungspfeil.</desc>
<rect width="108" height="108" rx="24" fill="#13233D"/>
<g transform="translate(54 54) scale(.88) translate(-54 -54)">
<path d="M 24,43 C 24,28 37,17 53,17 C 63,17 72,20 79,27" fill="none" stroke="#FF625F" stroke-width="7" stroke-linecap="round"/><path d="M 78,17 L 85,35 L 66,32 Z" fill="#FF625F"/>
<path d="M 86,58 C 85,75 72,89 54,89 C 44,89 35,86 28,80" fill="none" stroke="#48BFFA" stroke-width="7" stroke-linecap="round"/><path d="M 29,90 L 21,72 L 40,75 Z" fill="#48BFFA"/>
<path d="M 43,84 L 43,73 C 43,68 40,65 37,61 L 33,56 C 30,52 32,48 35,47 C 38,46 40,48 44,52 L 46,54 L 46,29 C 46,24 48,21 52,21 C 56,21 59,24 59,29 L 59,45 C 62,42 68,44 69,48 C 73,46 78,49 78,53 C 82,53 84,57 82,63 L 79,73 C 78,77 74,80 74,84 Z" fill="#FFF5DC" stroke="#13233D" stroke-width="4" stroke-linejoin="round"/>
<path d="M 59,47 L 59,56 M 69,50 L 68,57 M 78,54 L 76,59 M 44,54 L 53,63 C 57,66 60,70 60,75" fill="none" stroke="#13233D" stroke-width="3.2" stroke-linecap="round"/>
</g></svg>